  <svg
                  xmlns="http://www.w3.org/2000/svg"
                  width="23"
                  height="18"
                  viewBox="0 0 23 18"
                  fill="none"
                >
                  <path
                    fill-rule="evenodd"
                    clip-rule="evenodd"
                    d="M22.3528 6.07402C22.6553 6.58961 22.4766 7.24958 21.9541 7.54517L4.8776 17.2349C4.35513 17.5305 3.68486 17.3552 3.38238 16.8396L0.646309 12.1786C0.343834 11.663 0.526003 11.0065 1.04848 10.7075L3.42021 9.36351L5.47225 12.8489C5.54788 12.9795 5.71632 13.0242 5.84693 12.9486L6.32127 12.6805C6.45188 12.6049 6.49659 12.4399 6.42096 12.3127L4.36889 8.81697L6.26629 7.74111L7.22527 9.37382C7.3009 9.50443 7.46934 9.54911 7.59995 9.47348L8.07429 9.20538C8.2049 9.12975 8.24961 8.96823 8.17398 8.83758L7.21496 7.20832L9.11236 6.13246L11.1644 9.62816C11.2401 9.7588 11.4085 9.80348 11.5391 9.72785L12.0134 9.45975C12.1441 9.38413 12.1887 9.21914 12.1131 9.09196L10.0576 5.59622L11.955 4.52035L12.914 6.14619C12.9896 6.2768 13.1581 6.32151 13.2887 6.24588L13.763 5.97778C13.8936 5.90215 13.9383 5.74059 13.8627 5.60998L12.9037 3.98069L14.8011 2.90483L16.8532 6.3971C16.9288 6.52775 17.0972 6.57243 17.2278 6.4968L17.7022 6.2287C17.8328 6.15307 17.8775 5.99151 17.8018 5.8609L15.7498 2.36516L18.1215 1.0212C18.644 0.725568 19.3142 0.90089 19.6167 1.41648L22.3528 6.07402Z"
                    fill="#007B8F"
                  ></path>
                </svg>